<?xml version="1.0" encoding="UTF-8" standalone="no"?>
<svg xmlns="http://www.w3.org/2000/svg" xmlns:xlink="http://www.w3.org/1999/xlink" version="1.1" width="700" height="700" viewBox="397 7.5 700 700"><defs><linearGradient x1="727.16726" y1="340.29481" x2="721.96975" y2="324.49095" gradientUnits="userSpaceOnUse" id="color-1"><stop offset="0" stop-color="#473d3c"/><stop offset="1" stop-color="#36646d"/></linearGradient><linearGradient x1="727.35456" y1="154.26219" x2="727.85168" y2="162.2813" gradientUnits="userSpaceOnUse" id="color-2"><stop offset="0" stop-color="#f7bc2c"/><stop offset="1" stop-color="#ffe733"/></linearGradient><linearGradient x1="893.82905" y1="377.01509" x2="898.20132" y2="366.13623" gradientUnits="userSpaceOnUse" id="color-3"><stop offset="0" stop-color="#7c7f85"/><stop offset="1" stop-color="#a5a9ad"/></linearGradient></defs><g id="document" fill="#ffffff" fill-rule="nonzero" font-family="none" font-weight="none" font-size="none"><rect x="397" y="5.35714" transform="scale(1,1.4)" width="700" height="500" id="Shape-1-1"/></g><g fill="none" fill-rule="nonzero" stroke="none" stroke-width="1" stroke-linecap="butt" stroke-linejoin="miter" stroke-miterlimit="10" font-family="none" font-weight="none" font-size="none"><g><g id="stage"><g id="layer1-1"><g id="Group-1"><g id="Group-1-1"><g id="Group-1-2"><path d="M464.83022,129.68359h560v455.63282h-560z" id="Path-1" fill="#f7f7f7"/><path d="M719.85306,362.18487c-1.3557,-0.05443 -2.52191,-0.15616 -3.83194,-0.5415c-21.1039,-6.20683 -26.89258,-33.67006 -10.56207,-48.23062c5.54204,-5.02236 12.87589,-7.59533 20.34019,-7.13615c6.35169,0.38972 18.70831,6.07994 20.42277,12.69345l0.40195,-0.50186c2.37617,2.0457 4.56094,11.26638 4.69765,14.46155c0.34181,8.05945 -2.0453,15.19041 -7.51133,21.12785c-3.675,3.99213 -9.84184,8.09802 -15.48996,8.09419c-0.37625,0.55546 -0.43859,0.88939 -1.13669,0.99331c-1.68575,0.25053 -5.86715,0.56393 -7.30488,-0.21798z" id="Path-1-1" fill="#c294f1"/><path d="M719.85306,362.18487c2.82216,0.05279 5.6454,0.04186 8.46728,-0.03309c-0.37625,0.55546 -0.43859,0.88939 -1.13669,0.99331c-1.68575,0.25053 -5.86715,0.56393 -7.30488,-0.21798z" id="Path-1-2" fill="#d4b3f6"/><path d="M713.49675,324.96218c0.06808,-0.07986 0.12796,-0.16739 0.20425,-0.23931c1.46727,-1.38904 18.2,-0.65008 21.09242,-0.54314c0.41754,0.15234 0.9111,0.23165 1.05901,0.68837c0.63519,1.96091 0.28192,6.04848 0.20399,8.08899c0.08366,2.45566 0.09407,4.91323 0.03146,7.36971l-0.00712,1.44949c1.82383,1.18283 2.59712,3.77223 3.40923,5.88356l-0.1039,0.67307c-0.21329,0.17558 -0.42382,0.35143 -0.63711,0.52729c-9.14977,0.329 -18.49312,0.13676 -27.66148,0.08533c-0.39594,-0.00218 -0.80473,-0.15288 -1.02923,-0.2341c0.12359,-1.52143 -0.45446,-0.74281 0.45911,-1.98608c0.73227,-2.52403 2.53888,-4.09139 2.96735,-6.66519c-0.22559,-4.16853 0.01284,-10.75824 0.01204,-15.09798z" id="Path-1-3" fill="#88bcd0"/><path d="M736.08788,340.3268l-0.00712,1.44949c1.82383,1.18283 2.59712,3.77223 3.40923,5.88356l-0.1039,0.67307c-0.21329,0.17558 -0.42382,0.35143 -0.63711,0.52729c-9.14977,0.329 -18.49312,0.13676 -27.66148,0.08533c-0.39594,-0.00218 -0.80473,-0.15288 -1.02923,-0.2341c0.12359,-1.52143 -0.45446,-0.74281 0.45911,-1.98608c1.12136,0.54124 8.12165,0.79996 9.01059,-0.07657l0.42739,-1.84714l-0.16625,-0.18598l0.25183,-1.43117c0.79406,-0.31095 1.94742,0.21879 2.98704,0.17011c3.9561,-0.18598 7.93981,-0.29811 11.89864,-0.36456c-0.33113,-0.72311 -0.78723,-1.20363 -0.89852,-1.89911c0.9223,-0.17339 1.31934,-0.18624 2.05981,-0.76412z" id="Path-1-4" fill="#dbe7ed"/><path d="M734.92658,342.99003c0.20918,0.68565 0.35602,0.91592 0.75414,1.48477c-1.63134,0.59758 -4.82728,-0.62081 -6.03641,0.74006l-0.49519,-0.42146c-1.74754,1.1998 -5.30387,0.39218 -7.50066,0.3673c-0.55453,-0.00629 -0.35629,-0.47232 -1.69312,-0.35909l-0.16625,-0.18597l0.25184,-1.43118c0.79406,-0.31095 1.94742,0.21879 2.98704,0.17011c3.9561,-0.18598 7.9398,-0.29811 11.89863,-0.36456z" id="Path-1-5" fill="#dbe7ed"/><path d="M710.05827,348.71142l0.45582,-0.47176c1.27505,-0.41324 27.25242,-0.31533 28.872,0.09326c-0.21329,0.17558 -0.42382,0.35143 -0.63711,0.52729c-9.14977,0.329 -18.49312,0.13676 -27.66148,0.08533c-0.39594,-0.00218 -0.80473,-0.15288 -1.02923,-0.2341z" id="Path-1-6" fill="#287a86"/><path d="M736.08788,340.3268l-0.00712,1.44949c0.16735,1.88707 1.55587,3.71233 2.37836,5.54144c-1.94113,-0.26501 -7.17364,0.16382 -8.3043,-0.59948l-0.21657,-0.5798l-0.29394,-0.92358c1.20913,-1.36087 4.40507,-0.14247 6.03641,-0.74005c-0.39812,-0.56885 -0.54496,-0.79914 -0.75414,-1.48477c-0.33113,-0.72311 -0.78723,-1.20363 -0.89852,-1.89911c0.9223,-0.17339 1.31935,-0.18624 2.05982,-0.76412z" id="Path-1-7" fill="#f7f7f7"/><path d="M719.95534,344.80163c1.33683,-0.11323 1.13859,0.3528 1.69312,0.35909c2.19681,0.02488 5.75312,0.8325 7.50066,-0.3673l0.49519,0.42145l0.29394,0.92358l-0.34617,0.57159c-1.28216,0.16218 -9.1577,0.30303 -10.06413,-0.06127z" id="Path-1-8" fill="#b9d6e5"/><path d="M713.48471,340.06015l0.27124,0.62356c1.09866,0.30794 1.62341,0.21551 2.7516,0.16382c0.31308,0.56147 0.17117,0.59593 0.09051,1.3781l-0.48342,0.17832l0.47086,-0.16656l-0.47058,0.19171l-0.93324,-0.45153c-0.61387,0.46056 -0.35301,0.16875 -0.65188,1.0223c1.45824,0.00575 3.3518,-0.16109 4.64624,0.24478c0.3407,0.61591 0.30461,0.65609 0.42355,1.36333l0.18949,0.00766l0.16624,0.18597l-0.42739,1.84714c-0.88894,0.87653 -7.88923,0.61782 -9.01059,0.07658c0.73227,-2.52403 2.53888,-4.0914 2.96735,-6.6652z" id="Path-1-9" fill="#f7f7f7"/><path d="M714.5298,342.99989c1.45824,0.00575 3.3518,-0.1611 4.64624,0.24477c0.3407,0.61591 0.30461,0.6561 0.42355,1.36334c-1.09512,0.03857 -4.93171,0.07166 -5.83051,-0.24231c0.29587,-0.44169 0.54441,-0.88009 0.7607,-1.3658z" id="Path-1-10" fill="#dbe7ed"/><path d="M713.49675,324.96218c0.06808,-0.07986 0.12796,-0.16739 0.20425,-0.23931c1.46727,-1.38904 18.2,-0.65008 21.09242,-0.54314c0.41754,0.15234 0.9111,0.23165 1.05901,0.68837c0.63519,1.96091 0.28192,6.04848 0.20399,8.08899c-0.34617,-1.48012 -0.30871,-5.77281 -0.32594,-7.5401c-5.67547,0.09053 -11.35176,0.11624 -17.02805,0.07739c-1.73413,0.06263 -3.63753,0.20485 -5.2057,-0.5322z" id="Path-1-11" fill="#b9d6e5"/><path d="M713.49675,324.96218c0.06808,-0.07986 0.12796,-0.16739 0.20425,-0.23931c1.46727,-1.38904 18.2,-0.65008 21.09242,-0.54314c-3.25336,0.32299 -13.44328,-0.36675 -15.50582,0.56558l-0.58517,0.74909c-1.73413,0.06263 -3.63753,0.20484 -5.2057,-0.53221z" id="Path-1-12" fill="#dbe7ed"/><path d="M715.14557,325.76568c6.43507,0.04321 12.87071,0.03857 19.30552,-0.0134c0.01477,2.5429 -0.0104,11.05333 0.35328,13.06403c-4.16911,-0.47423 -15.368,-0.17065 -19.93495,-0.15534c0.15531,-4.29679 0.24746,-8.59576 0.27617,-12.89529z" id="Path-1-13" fill="url(#color-1)"/><path d="M734.80436,338.81631l0.28711,0.36593l-0.15122,0.47697c-1.45495,0.54507 -17.73707,0.27267 -20.23383,0.27513l-0.24418,-0.75236l0.24364,-0.29947l12.82477,0.09298c1.7396,0.0093 5.73754,0.11076 7.27371,-0.15918z" id="Path-1-14" fill="#b9d6e5"/><path d="M887.20093,533.94148c-0.06016,-0.00274 -0.12031,-0.00274 -0.1832,-0.00547c-23.03437,-3.35845 -31.02422,-32.95269 -14.175,-48.18878c12.31016,-11.12826 28.79024,-9.54203 39.35587,1.76127c2.83829,3.03847 6.43125,9.79638 6.25352,13.89052c0.31993,0.588 0.27889,0.79039 0.74375,0.94355c0.73007,1.9746 0.58517,6.25742 0.19688,8.35236c-0.44023,-0.19417 -0.25977,-0.04103 -0.525,-0.47861l-0.40742,0.44852c0.19688,10.44454 -11.35859,22.64489 -21.79296,23.23016c-0.28437,0.4704 -0.34453,0.8068 -0.89141,0.92167c-1.72265,0.36648 -7.09023,0.59347 -8.54765,-0.1641z" id="Path-1-15" fill="#c294f1"/><path d="M887.20093,533.94148c3.15547,0.00274 6.31093,-0.01368 9.4664,-0.0465c-0.28437,0.4704 -0.34452,0.8068 -0.8914,0.92167c-1.72265,0.36648 -7.09024,0.59347 -8.54766,-0.1641z" id="Path-1-16" fill="#d4b3f6"/><path d="M918.4521,501.39902c0.31993,0.588 0.27889,0.79039 0.74375,0.94355c0.73007,1.9746 0.58517,6.25742 0.19688,8.35236c-0.44023,-0.19417 -0.25977,-0.04103 -0.525,-0.47861l-0.40742,0.44852c-0.08477,-0.87789 0.18867,-3.29827 0.15313,-4.47154c-0.04922,-1.56983 -0.17773,-3.25452 -0.16134,-4.79428z" id="Path-1-17" fill="#d4b3f6"/><path d="M902.61459,495.35218c0.92695,-1.49873 1.10469,-4.12696 3.64765,-5.23184c1.26601,0.07931 0.83124,0.01368 2.00157,0.74663l0.04648,0.54425c-1.11836,1.19788 -2.35704,0.13128 -3.56563,1.29087c-0.72735,1.93082 -6.11406,15.40291 -5.99922,16.3355c0.19413,1.58077 1.58047,2.98103 1.72812,4.56454c0.07657,0.8232 -0.19141,1.45223 -0.72735,2.05938c-0.13946,0.15863 -0.29257,0.30631 -0.42382,0.47315c-0.41563,0.53056 -0.42111,0.722 -0.31719,1.37838c0.40195,0.92986 0.44024,1.72299 0.17228,2.66926c-0.52773,0.60988 -0.33087,0.59347 -0.9789,0.8232c-0.58516,0.21605 -1.2332,0.16957 -1.78282,-0.12581c-1.62148,-0.85055 -1.03359,-2.23715 -0.2707,-3.3858l-0.17773,-0.30083c-1.22227,-0.46493 -11.42695,-0.36649 -13.13866,-0.10939l-0.24063,0.41843c0.83946,1.53701 1.0418,2.43954 -0.58242,3.54716c-1.15664,0.18051 -0.68087,0.23247 -1.74453,-0.24342c-0.76016,-0.94627 -0.66719,-1.53427 -0.64531,-2.78686l0.25157,-0.54971c-0.60704,-0.64269 -1.47657,0.51143 -2.49375,0.01368c1.63242,-5.7378 22.53671,4.36216 14.03007,-8.10622c-4.15625,-0.24341 -9.25313,-0.09026 -13.2754,-0.69741c-0.03554,-2.07032 -0.50039,-10.29412 0.5797,-11.6479c1.94141,-0.50596 4.2,-0.4239 6.22617,-0.63997c5.93359,-0.6345 11.725,-0.80407 17.68047,-1.03927z" id="Path-1-18" fill="#88bcd0"/><path d="M896.14506,517.49385c0.4457,1.02284 0.50859,1.61358 1.30976,2.22346c0.86953,-0.51415 1.05273,-1.21428 1.5504,-2.20432c0.40195,0.92986 0.44024,1.72299 0.17228,2.66926c-0.52773,0.60988 -0.33087,0.59347 -0.9789,0.8232c-0.58516,0.21605 -1.2332,0.16956 -1.78282,-0.12582c-1.62148,-0.85055 -1.03359,-2.23715 -0.2707,-3.3858z" id="Path-1-19" fill="#69696a"/><path d="M882.58804,517.50205c0.83946,1.53701 1.0418,2.43953 -0.58242,3.54715c-1.15664,0.18051 -0.68087,0.23248 -1.74453,-0.24341c-0.76016,-0.94627 -0.66719,-1.53427 -0.64531,-2.78686c0.50312,0.82867 0.57969,0.96268 1.2496,1.6464l0.50313,-0.05197c0.53594,-0.79038 0.7793,-1.25806 1.21953,-2.11133z" id="Path-1-20" fill="#69696a"/><path d="M893.58295,509.55173c4.17265,-0.08204 6.24531,1.63546 5.26641,6.08513c-5.95547,0.26255 -3.21563,-0.83688 -5.26641,-6.08513z" id="Path-1-21" fill="#f7f7f7"/><path d="M896.10405,496.8591c0.82578,-0.07657 1.07188,-0.09572 1.89493,-0.03009c0.63164,0.78491 0.4457,0.33912 0.48671,1.41942c-0.40195,0.7986 -0.56328,1.36744 -1.33164,1.78862c-1.41094,0.03556 -1.6543,0.28169 -2.68789,-0.39656c-0.38007,-1.28813 0.32266,-2.52157 1.63789,-2.78139z" id="Path-1-22" fill="#f7f7f7"/><path d="M886.50365,501.16382c1.30977,-0.01368 1.71446,-0.22973 2.73711,0.33912c0.38007,0.84782 -0.00547,1.89254 -0.22148,2.85249c-0.9789,0.03282 -2.1246,0.22699 -2.86563,-0.31177c-0.35547,-0.84235 0.09843,-1.93904 0.35,-2.87984z" id="Path-1-23" fill="#f7f7f7"/><path d="M891.09741,497.08609c1.16484,-0.0711 1.84296,-0.26529 2.79453,0.21605c0.22148,1.1295 -0.13946,1.58077 -0.525,2.80599c-1.25507,0.14222 -1.93867,0.44306 -2.7289,-0.58527c-0.00547,-1.02833 0.16953,-1.43036 0.45937,-2.43679z" id="Path-1-24" fill="#f7f7f7"/><path d="M886.92203,497.58111c0.96796,-0.07931 2.1,-0.31177 2.89843,0.14222c0.30899,1.03652 0.04922,1.37838 -0.19688,2.52978c-1.34805,0.06016 -2.52111,0.44031 -3.19376,-0.84235c0.1039,-0.96268 0.1039,-0.93807 0.49219,-1.82965z" id="Path-1-25" fill="#f7f7f7"/><path d="M893.93569,501.0216l3.00507,-0.08478c-0.31446,1.11309 -0.70819,2.30552 -1.05272,3.42136c-0.89413,0.03829 -1.7582,0.19144 -2.49923,-0.25161c-0.24883,-1.00918 0.22695,-1.94451 0.54688,-3.08497z" id="Path-1-26" fill="#f7f7f7"/><path d="M896.3228,504.86959c1.31796,-0.02462 1.44922,-0.22152 2.1711,0.43758c0.09296,1.0119 -0.81758,2.32193 -1.35077,3.30648c-0.58789,0.3528 -0.62071,0.27895 -1.3289,0.37742l-0.3746,-0.40202c-0.01913,-1.31001 0.4703,-2.45866 0.88319,-3.71944z" id="Path-1-27" fill="#f7f7f7"/><path d="M890.381,501.11458c1.20312,-0.02188 1.58866,-0.20511 2.43633,0.35827c0.28437,0.91345 -0.19141,1.91169 -0.50312,2.89078c-1.09922,0.00274 -1.50936,0.18323 -2.35976,-0.31724c-0.31171,-0.85876 0.16134,-1.99374 0.42657,-2.93181z" id="Path-1-28" fill="#f7f7f7"/><path d="M885.45365,497.66043c0.44296,0.19964 0.33086,0.27895 0.67812,0.8861l-0.38007,1.04474c-1.25507,0.96268 -0.69453,0.67278 -2.48554,0.91892c-0.69727,-0.23794 -0.51953,-0.24341 -1.04727,-0.9873l0.42657,-1.06661c1.31796,-0.96815 0.96523,-0.68098 2.80819,-0.79585z" id="Path-1-29" fill="#f7f7f7"/><path d="M892.91029,504.90515c1.25782,-0.01368 1.21954,-0.21058 2.14923,0.32271c0.23242,0.88611 -0.47031,2.2262 -0.83672,3.15879c-0.84493,-0.03556 -1.33984,0.04922 -1.99063,-0.4704c-0.2707,-0.9408 0.30624,-2.01561 0.67812,-3.01112z" id="Path-1-30" fill="#f7f7f7"/><path d="M882.53881,501.22399c0.96251,-0.03829 1.58866,-0.18598 2.35704,0.30904c0.45117,0.83961 0.19414,1.84332 0.09024,2.85524c-1.03634,0.0465 -1.3207,0.12854 -2.25859,-0.22699c-0.54141,-1.06387 -0.27618,-1.58349 -0.18867,-2.93727z" id="Path-1-31" fill="#f7f7f7"/><path d="M898.21499,500.56761c0.96796,-0.00547 0.91875,-0.15863 1.60507,0.26802c0.2707,1.08575 -0.47031,2.44499 -0.91601,3.58543c-1.11836,-0.03556 -1.16211,0.15863 -1.84843,-0.39108c-0.18047,-1.08849 0.64258,-2.37662 1.15937,-3.46237z" id="Path-1-32" fill="#f7f7f7"/><path d="M889.59351,504.86139c0.83399,-0.03556 1.37812,-0.16682 2.06171,0.27896c0.33359,1.1295 -0.06016,1.75306 -0.38828,3.05487c-1.28516,-0.03556 -1.13204,0.17504 -1.97695,-0.45125c-0.29805,-0.8697 0.08477,-1.94451 0.30352,-2.88258z" id="Path-1-33" fill="#f7f7f7"/><path d="M885.73804,504.88874c0.87227,-0.03282 1.94413,-0.21605 2.6168,0.24888c0.2789,0.78764 -0.13945,1.60811 -0.42382,2.44225c-0.68087,0.37468 -1.34806,0.32546 -2.00977,0.02735c-0.525,-1.00096 -0.32539,-1.57255 -0.18319,-2.71848z" id="Path-1-34" fill="#f7f7f7"/><path d="M899.3771,496.72235c0.85312,-0.04922 1.04728,-0.0629 1.88399,0.05744l0.28711,0.41024c-0.14493,0.99002 -0.43749,1.81049 -0.73554,2.76223c-0.77657,0.06838 -1.33984,0.22973 -1.97148,-0.17229c-0.2543,-1.08849 0.1832,-1.84331 0.53594,-3.0576z" id="Path-1-35" fill="#f7f7f7"/><path d="M882.38569,504.91062c0.8504,-0.0711 1.4547,-0.23521 2.18477,0.16409c0.40469,0.69466 0.14218,1.63274 0.03281,2.47782c-0.90235,-0.01094 -1.08554,0.02462 -1.925,-0.24614c-0.53866,-0.87242 -0.32812,-1.23069 -0.29258,-2.39577z" id="Path-1-36" fill="#f7f7f7"/><path d="M879.67865,501.17749c0.8039,0.03009 0.78477,0.02187 1.54493,0.27895c0.57148,1.04746 0.34727,1.64094 0.33359,2.97831c-0.80937,-0.01368 -0.91054,0.04375 -1.65704,-0.30358c-0.50587,-0.76576 -0.2789,-1.97459 -0.22148,-2.95368z" id="Path-1-37" fill="#f7f7f7"/><path d="M879.65132,497.71512c0.82305,0.03829 0.87228,0.01093 1.68712,0.27895c0.48399,0.87242 0.2789,1.50693 0.2461,2.63098c-0.74101,-0.06563 -0.84219,-0.07932 -1.60235,-0.28717c-0.54688,-0.87242 -0.34181,-1.44676 -0.33087,-2.62276z" id="Path-1-38" fill="#f7f7f7"/><path d="M720.11886,479.8262c6.27676,-0.74116 13.42086,0.83961 18.58636,4.53718c20.93437,14.98993 13.8168,47.49411 -12.15047,51.67849c-6.55566,0.77398 -13.7476,-1.12949 -19.13159,-5.02672c-15.57007,-11.27323 -15.90341,-34.53894 -0.35958,-45.9954c4.54425,-3.35024 7.58953,-4.2254 13.05528,-5.19355z" id="Path-1-39" fill="#deacca"/><path d="M712.5594,505.77485c0.26331,-6.34221 5.41324,-10.63599 11.65035,-10.3461c3.28535,0.15042 6.37329,1.61086 8.57446,4.05311c1.65075,1.83238 2.39148,3.63467 3.25801,5.91831c2.02399,0.83961 4.14505,2.40396 3.06223,4.931c-0.69453,1.62999 -2.55118,2.88531 -3.64958,4.23635c-0.66418,0.80132 -1.60808,2.53251 -2.20801,3.49246c-4.81359,2.86343 -7.64912,3.79876 -13.42194,2.5079c-2.94519,-0.6591 -7.27289,-2.94821 -7.23789,-6.39417c-6.15727,-1.94725 -4.84312,-9.90305 -0.02761,-8.39885z" id="Path-1-40" fill="#b7895c"/><path d="M719.01499,501.08998c1.52441,0.588 3.04117,1.1924 4.55,1.81869c11.19042,-4.06405 7.60101,3.0576 8.22746,10.98879c0.10418,1.31822 -2.18641,2.75951 -3.21371,3.35298c-5.17425,1.77221 -10.66871,1.70383 -13.21223,-4.00936c0.18375,-0.72201 0.33961,-1.46316 0.52855,-2.1797c1.19875,-4.5618 -2.36551,-7.56198 3.11993,-9.97142z" id="Path-1-41" fill="#fecd89"/><path d="M723.06487,511.23641c1.89218,-0.07931 4.29324,0.05744 5.58551,1.56709c0.29284,2.10314 -1.98842,2.37388 -3.608,2.8224c-0.46293,0.01641 -0.92641,0.01641 -1.38934,0.00547c-1.73195,-0.05197 -3.35808,-0.50049 -4.56559,-1.79135c-0.40441,-2.15783 2.33653,-2.25355 3.97742,-2.60361z" id="Path-1-42" fill="#ff6c18"/><path d="M719.07132,505.35641c0.68578,0.02735 0.95623,0.10939 1.60646,0.26802c1.41723,1.26625 1.17578,2.08945 0.2327,3.68937l-1.3527,-0.16135c-1.64364,-1.176 -1.43529,-2.10314 -0.48646,-3.79604z" id="Path-1-43" fill="#282828"/><path d="M726.91405,505.05009c0.5734,0.06016 0.76042,0.12034 1.31988,0.27623c1.04617,1.24163 0.74484,2.7048 -0.04265,4.00936l-1.1323,-0.31451c-1.47819,-1.23069 -0.89249,-2.47235 -0.14493,-3.97106z" id="Path-1-44" fill="#282828"/><path d="M712.55229,512.05961c-0.90289,-0.03829 -1.2324,-0.05743 -1.92829,-0.67825c-0.66937,-0.59621 -1.07242,-1.43582 -1.11918,-2.33012c-0.06617,-1.26625 0.93982,-2.46688 2.25942,-2.29731c0.28793,1.00371 0.41261,1.43855 0.87418,2.37388l0.10063,0.20238c-0.26523,1.18421 -0.23516,1.5042 -0.18676,2.72942z" id="Path-1-45" fill="#fecd89"/><path d="M736.54069,511.7916c-0.24829,0.27076 -0.15176,0.15589 -0.59227,0.2817l-0.3727,-0.46493c-0.19852,-1.35923 -0.66199,-4.32935 0.63028,-5.0787l0.60375,0.26255c1.63296,1.84331 1.73413,3.44049 -0.26906,4.99938z" id="Path-1-46" fill="#f9d19f"/><path d="M736.80975,506.79222c1.63296,1.84331 1.73413,3.44049 -0.26906,4.99938c0.06453,-1.69562 0.12852,-3.30648 0.26906,-4.99938z" id="Path-1-47" fill="#fecd89"/><path d="M896.19156,304.82026c7.40469,-0.50786 14.55507,1.82883 20.00469,6.9975c1.43007,1.35843 1.88671,2.75158 3.21016,3.66447c0.12578,0.05716 0.61252,0.27241 0.67813,0.36675c12.83789,17.98739 2.31328,43.51704 -20.36017,45.17191c-1.84296,0.02434 -4.02227,0.10037 -5.81328,-0.20128c-32.38866,-5.45666 -31.09805,-52.82086 2.28047,-55.99935z" id="Path-1-48" fill="#00c399"/><path d="M886.66773,325.79167c1.79922,-1.42132 8.2004,0.11295 10.38242,-0.92768c1.59413,-0.75865 -2.13282,-3.61142 -1.06641,-6.79948c0.7,-0.61563 0.94882,-0.75948 1.90312,-0.68565c5.43594,0.42172 1.43829,4.83993 1.17852,7.16076c0.10117,0.16328 0.19961,0.32655 0.30078,0.48981c2.57852,0.58772 7.58789,-0.2486 10.00507,0.37989c0.63164,1.22278 0.57695,1.892 0.63984,3.23975c0.30625,0.33639 0.19413,0.33831 0.525,0.43129c0.92148,0.47697 1.54492,0.60879 1.84023,1.78451c0.56875,2.26778 0.57148,9.27676 -0.33359,11.18625c-3.47265,2.40998 -1.05546,2.16137 -2.65234,4.43626c-0.17773,0.12417 -0.55235,0.40366 -0.76836,0.39491c-2.76718,-0.11077 -19.90625,0.60415 -21.33087,-0.33994c-2.11366,-1.23069 -0.0957,-2.60963 -2.01796,-3.77824c-0.40742,-0.28963 -1.2414,-0.90224 -1.3207,-1.39862c-0.525,-3.34286 -0.87227,-8.96306 0.65352,-11.97198c1.06641,-0.37139 1.00351,-0.15643 1.53124,-0.90444c0.00819,-1.21703 -0.09296,-1.64475 0.53047,-2.69742z" id="Path-1-49" fill="#95a0a8"/><path d="M910.53609,329.08038c0.92148,0.47697 1.54492,0.60879 1.84023,1.78451c0.56875,2.26778 0.57148,9.27676 -0.33359,11.18625c-0.88047,0.31369 -1.00624,0.4116 -1.91133,0.34378c-0.27617,-0.6561 -0.39376,-2.20705 -0.31719,-2.85686c0.25157,-2.14771 -0.59335,-9.09925 0.72188,-10.45768z" id="Path-1-50" fill="#c82a29"/><path d="M884.606,329.39353l1.43007,0.07549c0.70547,0.90909 0.58516,11.87024 0,12.95819l-0.76289,0.33694c-0.40742,-0.28963 -1.2414,-0.90224 -1.3207,-1.39862c-0.525,-3.34286 -0.87227,-8.96306 0.65352,-11.97198z" id="Path-1-51" fill="#c82a29"/><path d="M887.29116,346.54239c0.79296,-0.45181 20.38476,-0.41925 22.09922,-0.05497c-0.17773,0.12417 -0.55234,0.40366 -0.76835,0.39491c-2.76718,-0.11077 -19.90625,0.60415 -21.33087,-0.33994z" id="Path-1-52" fill="#f7f7f7"/><path d="M902.10327,330.60235c0.80664,-0.40449 1.76641,-0.33447 2.5047,0.18215c0.73829,0.51662 1.13476,1.39671 1.03086,2.29183c-0.10664,0.89486 -0.69181,1.66034 -1.52852,1.99319c-1.21953,0.48434 -2.60312,-0.07713 -3.1418,-1.27364c-0.53594,-1.19679 -0.03555,-2.60443 1.13476,-3.19353z" id="Path-1-53" fill="#f7f7f7"/><path d="M892.05992,330.55749c1.23594,-0.52427 2.66328,0.0495 3.19375,1.28402c0.53047,1.23454 -0.03554,2.6657 -1.26601,3.20229c-1.24141,0.54014 -2.68517,-0.03146 -3.21836,-1.27473c-0.53319,-1.24301 0.04375,-2.68374 1.29063,-3.21158z" id="Path-1-54" fill="#f7f7f7"/><path d="M898.26421,339.29711c0.74101,0.0681 0.85586,0.03802 1.55312,0.3301c0.51953,0.92904 0.30625,1.58817 0.28984,2.7948c-0.74648,-0.0815 -0.85586,-0.05223 -1.55859,-0.36346c-0.53047,-0.7294 -0.3254,-1.80285 -0.28437,-2.76142z" id="Path-1-55" fill="#f7f7f7"/><path d="M898.02905,334.41998c0.83671,0.89977 1.22227,1.38303 1.22227,2.55302l-0.55234,0.43211c-0.70547,-0.096 -0.88048,-0.08368 -1.54766,-0.35937c-0.2789,-0.92002 0.31719,-1.51567 0.87773,-2.62576z" id="Path-1-56" fill="#c82a29"/><path d="M896.41029,339.24542c0.56601,0.11323 0.66446,0.15972 1.21134,0.34926c0.50312,1.00096 0.2789,1.59088 0.23516,2.84401c-0.6207,-0.05059 -0.62889,-0.06892 -1.22227,-0.28306c-0.54413,-0.86231 -0.30625,-1.82472 -0.22423,-2.91019z" id="Path-1-57" fill="#f7f7f7"/><path d="M894.02318,339.23284c0.65625,0.11978 0.64806,0.10474 1.23867,0.40531c0.525,0.84097 0.26251,1.83921 0.15312,2.89981c-0.4293,-0.12443 -0.68359,-0.24095 -1.09648,-0.4105c-0.59063,-0.8686 -0.36367,-1.78041 -0.29531,-2.8946z" id="Path-1-58" fill="#f7f7f7"/><path d="M900.69506,339.2569c0.45117,0.10474 0.72461,0.19939 1.16484,0.34297c0.53594,0.9192 0.33633,1.32888 0.32265,2.51664c-0.56875,0.15234 -0.59882,0.10091 -1.19218,0.01695c-0.52773,-0.94409 -0.30899,-1.64697 -0.29531,-2.87656z" id="Path-1-59" fill="#f7f7f7"/><path d="M892.95952,339.31324l0.45937,0.33858c0.34453,1.27994 0.48399,2.01314 -0.65078,2.76277c-0.4211,-0.44387 -0.56328,-0.70095 -0.89413,-1.20909c0.08751,-0.95392 0.39922,-1.04556 1.08554,-1.89228z" id="Path-1-60" fill="#f7f7f7"/><path d="M499.37959,484.20477c6.42578,-0.63997 13.96445,1.18146 19.15922,5.01578c5.98035,4.46607 9.93972,11.12554 11.00587,18.51521c2.08606,14.62619 -6.3957,29.00352 -21.26852,31.77397c-1.39153,0.25982 -0.54058,0.69466 -2.65042,0.98183c-6.06047,0.59347 -13.36343,-1.14593 -18.4327,-4.55633c-16.25643,-10.93684 -16.79434,-34.95738 -1.08666,-46.66543c3.90813,-2.91265 8.42189,-4.28285 13.27323,-5.06502z" id="Path-1-61" fill="#fea471"/><path d="M490.05669,520.55145c-2.79018,-2.57079 -2.70013,-11.14742 -1.78724,-14.53594c0.91618,-3.38305 3.17084,-6.24375 6.24378,-7.92571c6.72984,-3.73313 16.62446,-1.82691 20.36946,5.21817c2.06664,3.5499 2.18284,8.53285 1.27723,12.4547c-2.16645,9.38889 -13.2784,13.4037 -21.46019,8.99506c-1.89355,-1.02284 -3.67784,-2.20433 -4.64302,-4.20626z" id="Path-1-62" fill="#facd2e"/><path d="M514.88269,503.30797c2.06664,3.5499 2.18284,8.53285 1.27723,12.4547c-2.16645,9.38889 -13.2784,13.4037 -21.46019,8.99506c-1.89355,-1.02284 -3.67784,-2.20433 -4.64302,-4.20626c0.81894,0.28442 1.99078,1.19241 2.66771,1.76947c6.16984,5.28927 16.01605,3.8562 20.69976,-2.66379c3.50657,-4.88178 2.40516,-10.88212 1.45852,-16.34918z" id="Path-1-63" fill="#f19c0e"/><path d="M495.52714,515.50012c2.81887,0.49502 5.52864,2.22894 9.20693,1.16781c1.1077,-0.31998 2.0516,-0.84508 3.08683,-1.09396l0.11512,0.38014l-0.4293,0.68098c-3.89484,3.67022 -8.97231,3.50887 -11.97958,-1.13497z" id="Path-1-64" fill="#472e0a"/><path d="M496.34527,505.06378c3.31023,0.53331 3.32527,3.06581 1.29882,5.26739c-3.35207,0.27349 -2.62063,-3.36391 -1.29882,-5.26739z" id="Path-1-65" fill="#472e0a"/><path d="M506.42553,505.03096c3.14617,0.83141 2.8227,3.5745 0.72707,5.51081c-3.29301,-0.95174 -2.4809,-3.48152 -0.72707,-5.51081z" id="Path-1-66" fill="#472e0a"/><path d="M725.33795,139.64627c10.93094,-0.16527 20.8403,5.38278 25.5653,15.36864c0.4457,0.94978 1.52578,2.0627 1.78829,3.053c0.82305,3.07457 0.65624,6.43056 0.6918,9.60057c0.03554,3.44185 0.14766,7.04701 -0.72734,10.38821c-0.25977,0.99988 -0.71094,0.1258 -0.89688,0.60494c-4.00312,10.18199 -12.21172,16.27205 -23.10519,17.18222c-39.44993,0.81445 -38.48004,-54.27637 -3.31598,-56.1976z" id="Path-1-67" fill="#7da7fe"/><path d="M713.82158,163.90227c1.75958,-6.19125 7.40634,-10.46804 13.84141,-10.48325c6.43535,-0.01518 12.10317,4.23485 13.89146,10.41788c0.13399,0.46958 0.2461,0.94573 0.33359,1.42679c1.03087,5.66533 -1.40547,11.40121 -6.19692,14.59256c-4.79227,3.19107 -11.02308,3.22662 -15.85118,0.08997c-4.82836,-3.13665 -7.32949,-8.84436 -6.36317,-14.52117c0.08751,-0.51333 0.20261,-1.02176 0.34481,-1.52279z" id="Path-1-68" fill="#facd2e"/><path d="M713.82158,163.90227c1.75958,-6.19125 7.40634,-10.46804 13.84141,-10.48325c6.43535,-0.01518 12.10317,4.23485 13.89146,10.41788c0.13399,0.46958 0.2461,0.94573 0.33359,1.42679c-2.38164,1.79545 -3.4836,4.84267 -5.45672,4.85251c-0.8523,-0.39409 -1.59523,-0.31069 -2.54652,-0.32327l0.76808,-0.33392c-2.46749,-0.81473 -3.20114,-1.29361 -4.16008,-3.70196l-0.71284,1.26271c-0.37871,-1.05539 -0.48727,-1.66173 -1.29718,-2.43078c-2.04995,-0.66267 -2.73028,1.84578 -3.36301,3.36939c-0.40934,-0.32409 -0.48727,-0.31287 -0.97152,-0.53521l-0.54935,0.60359l-1.76913,1.18311c-1.93704,0.29674 -2.37753,-0.00657 -4.04331,-0.90552l-0.84657,0.89212c-1.55913,-1.65487 -1.04125,-2.56943 -3.46308,-3.77141c0.08751,-0.51333 0.20261,-1.02176 0.34481,-1.52279z" id="Path-1-69" fill="#282828"/><path d="M713.82158,163.90227c1.75958,-6.19125 7.40634,-10.46804 13.84141,-10.48325c6.43535,-0.01518 12.10317,4.23485 13.89146,10.41788c-3.57192,-1.78644 -3.60418,-9.70483 -8.48749,-6.63784c-0.5734,-0.13675 -0.53567,-0.14878 -1.10935,-0.03282c-1.40875,1.65133 -0.9089,4.56863 -2.83089,5.53515c-1.08746,-0.09298 -3.12075,-0.27266 -3.94296,-0.95502c-0.13946,-1.43418 -0.7104,-4.02466 -2.01141,-4.85927l-0.53758,0.26465l-0.17772,-0.05032c-1.77789,-0.4805 -3.15465,-0.35395 -4.60305,0.8924c-2.29988,1.97897 -0.0897,4.37637 -4.0324,5.90846z" id="Path-1-70" fill="url(#color-2)"/><path d="M719.17658,161.05115c1.30484,1.13114 4.20548,4.43901 5.21583,5.83981l-0.29395,0.37113l0.04977,0.16109l-0.54934,0.60359l-1.76914,1.18311c-1.93704,0.29674 -2.37753,-0.00657 -4.04331,-0.90552c-1.52169,-1.96831 -1.47055,-2.7494 -1.30458,-5.07323l1.25289,-1.46809l1.10359,-0.57706z" id="Path-1-71" fill="#dbe7ed"/><path d="M716.48186,163.23113c1.60371,1.81925 3.6854,4.3009 5.34789,5.97875c-1.93704,0.29674 -2.37753,-0.00657 -4.04331,-0.90552c-1.52169,-1.96831 -1.47055,-2.7494 -1.30458,-5.07323z" id="Path-1-72" fill="#88bcd0"/><path d="M719.17658,161.05115c1.30484,1.13114 4.20548,4.43901 5.21583,5.83981l-0.29395,0.37113l0.04977,0.16109l-0.54934,0.60359c-2.01578,-2.0561 -3.73353,-4.22104 -5.86414,-6.26371l1.10359,-0.57707z" id="Path-1-73" fill="#88bcd0"/><path d="M719.17658,161.05115c1.30484,1.13114 4.20548,4.43901 5.21583,5.83981l-0.29395,0.37113c-1.11946,-0.73487 -4.73704,-4.70838 -5.26012,-6.07611z" id="Path-1-74" fill="#dbe7ed"/><path d="M732.35109,161.49666l5.60765,6.4218l-1.74124,1.15166l-1.56461,0.3889c-2.46749,-0.81473 -3.20113,-1.2936 -4.16007,-3.70195c0.06727,-1.26707 0.07028,-1.62288 0.43887,-2.8246z" id="Path-1-75" fill="#dbe7ed"/><path d="M730.4928,165.75707c0.06727,-1.26707 0.07029,-1.62288 0.43888,-2.8246c1.74425,2.06129 3.50601,4.10726 5.28582,6.13763l-1.56461,0.38891c-2.46749,-0.81473 -3.20113,-1.29361 -4.16007,-3.70196z" id="Path-1-76" fill="#88bcd0"/><path d="M719.17658,161.05115c3.57683,-1.48615 6.64536,2.24289 5.21583,5.83981c-1.01035,-1.4008 -3.91099,-4.70867 -5.21583,-5.83981z" id="Path-1-77" fill="#88bcd0"/><path d="M732.35109,161.49666l0.99559,-0.61452c1.44704,0.70943 4.56422,4.28857 5.31206,5.66423l-0.18319,0.43047l-0.51681,0.94162z" id="Path-1-78" fill="#88bcd0"/><path d="M733.34668,160.88212c1.44704,0.70943 4.56422,4.28857 5.31206,5.66423l-0.18319,0.43047c-1.09319,-0.53741 -4.59512,-4.75188 -5.12887,-6.0947z" id="Path-1-79" fill="#dbe7ed"/><path d="M733.34668,160.88212c3.61704,-0.88282 6.70659,2.26996 5.31206,5.66423c-0.74784,-1.37566 -3.86504,-4.9548 -5.31206,-5.66423z" id="Path-1-80" fill="#88bcd0"/><path d="M724.14823,167.42316c0.48425,0.22234 0.56218,0.21114 0.97152,0.53521c-0.55153,0.65145 -0.97371,1.19051 -1.6111,1.75635c-2.54681,1.09039 -4.26289,0.96761 -6.56878,-0.51826l0.84657,-0.89212c1.66578,0.89895 2.10629,1.20226 4.04331,0.90552l1.76914,-1.18311z" id="Path-1-81" fill="#0e1315"/><path d="M729.77994,167.01978l0.71284,-1.26271c0.95894,2.40834 1.69259,2.88722 4.16008,3.70195l-0.76808,0.33393c0.95129,0.01258 1.69422,-0.07084 2.54652,0.32327c-2.13582,0.55573 -2.71223,0.32327 -4.68972,-0.4488c-1.04289,-1.1068 -1.21187,-1.29825 -1.96164,-2.64764z" id="Path-1-82" fill="#0e1315"/><path d="M731.94121,172.65145c1.5493,0.61124 1.301,0.54124 3.08929,-0.08314l0.34235,0.28607c0.03446,0.7986 -0.245,1.07016 -0.67758,1.75717l-0.16789,0.262c0.33906,0.5776 0.33742,0.53056 0.37761,1.19487l-0.50204,0.4551c-2.32995,0.72475 -4.31759,0.31834 -6.6582,0.20867c-2.00019,-0.09326 -6.47006,1.31219 -7.43039,-1.28787c1.39535,-1.10326 -0.15449,-0.28799 -0.30899,-2.57161c0.94446,-0.97444 0.47413,0.86204 3.49234,-0.21469c1.57282,0.58307 2.84894,1.59307 4.21831,2.56342c1.28051,-0.91974 2.75297,-2.11434 4.22517,-2.56997z" id="Path-1-83" fill="#282828"/><path d="M724.0848,419.42341c0.49657,0.41843 0.62016,0.51689 0.63739,1.37838c0.0793,3.99021 -0.00684,8.10622 -0.00383,12.09368l0.02461,27.25319c-0.00082,1.59718 -0.25594,7.0943 0.05934,8.28124c1.05329,-0.10666 1.368,-1.00643 2.78331,-1.49326c0.32949,0.79038 -2.7423,8.21836 -3.2766,9.56665c-0.88866,-2.64464 -3.56289,-7.78624 -3.73899,-9.35607l0.31637,-0.22699l-0.33634,0.20786c1.54493,-0.30358 1.76504,1.28266 3.32035,1.30454c0.39101,-1.93904 0.26031,-12.57777 0.26277,-15.10206z" id="Path-1-84" fill="#95a0a8"/><path d="M724.59229,295.29819c0.01176,-3.85045 -0.0216,-7.38722 0.49793,-11.21715c0.09134,0.72884 0.14383,1.97267 0.53949,2.52046c0.18894,2.17013 0.06098,6.59874 0.06206,8.93708c1.16402,-0.71463 2.46449,-1.90321 3.71684,-1.17409c-0.42054,1.03598 -0.9666,0.72064 -1.06641,0.98319c-1.07625,2.83089 -2.38083,6.28969 -3.42646,9.07026c-0.52282,-3.03408 -1.33272,-6.01184 -2.4191,-8.89276c-0.735,-0.54124 -1.25235,-0.7376 -1.04399,-1.6795l0.4457,-0.10229c1.26,0.50404 1.62148,0.79311 2.6939,1.55478z" id="Path-1-85" fill="#95a0a8"/><path d="M857.81186,328.71993c1.60507,0.11021 1.68712,0.12471 3.13634,0.90798c2.25859,1.22168 4.56366,1.97514 7.03554,2.62823c-3.11171,0.97143 -5.56171,2.19339 -8.47382,3.6002l-1.09648,0.10338l-0.34454,-0.53521c0.23789,-1.09751 0.46759,-1.3051 1.39728,-2.00878c-1.39453,-1.27036 -4.04688,0.6706 -5.93087,-0.66239l0.01914,-0.41214c1.04727,-0.46465 3.36329,-0.27102 4.98204,-0.52018l0.28711,-0.04704c-0.43477,-1.11802 -0.6836,-1.92016 -1.01172,-3.05405z" id="Path-1-86" fill="#95a0a8"/><path d="M851.25482,502.07181c3.2457,1.09669 6.47228,2.25902 9.67423,3.48152c-0.59063,1.07481 -4.05507,2.23714 -5.35117,2.74583c-1.27695,0.36921 -2.54844,0.75482 -3.81719,1.15412l-0.14218,-0.29536c0.46758,-0.62903 0.97617,-1.10763 0.97617,-1.84879c-1.11836,-0.6591 -2.13829,0.27624 -3.2293,-0.80953c1.00625,-1.11856 2.41993,-0.92439 3.79531,-0.89977c-0.57422,-1.14593 -1.28517,-2.39029 -1.90587,-3.528z" id="Path-1-87" fill="#95a0a8"/><path d="M681.6205,507.90533c1.33028,-0.15863 2.09481,-0.01916 2.83063,-0.89705c-0.00629,-1.02011 -0.88757,-2.17424 -1.45769,-3.11778c2.84648,0.94627 8.51074,3.5034 10.40565,3.84799c-3.41716,1.23069 -6.76457,2.34927 -10.14645,3.73312l1.37894,-2.82787c-1.60317,0.00821 -4.10401,0.10392 -5.63307,0.00822c0.4066,-0.27076 4.38129,-0.42118 5.12723,-0.4704z" id="Path-1-88" fill="#95a0a8"/><path d="M891.94506,373.70586c1.21134,-3.59065 2.31328,-6.45106 4.06875,-9.84341c1.06366,3.45307 2.11367,7.06477 3.4043,10.42512c-1.17852,-0.85712 -2.33516,-1.74487 -3.60664,-2.4573c-0.06836,2.04269 -0.14493,3.86057 -0.33359,5.90601l-0.36914,-0.17312l-0.28711,-0.8623c0.01094,-1.51978 0.04648,-3.10685 -0.02188,-4.61868c-1.00352,0.52838 -1.9168,0.97662 -2.85469,1.6237z" id="Path-1-89" fill="url(#color-3)"/><path d="M894.82163,376.70086l0.28711,0.8623l0.36914,0.17312c0.17227,2.43242 -0.9543,30.98277 -1.31796,31.71297l-0.2625,-0.09573c-0.74922,-2.94 0.0793,-10.31027 0.07111,-13.69661c-0.01913,-6.57879 0.1996,-12.42132 0.85312,-18.95607z" id="Path-1-90" fill="#95a0a8"/><path d="M534.29593,510.34758c1.27422,-0.27895 7.38063,-0.34186 9.01413,-0.36648c7.88566,-0.10939 16.22249,-0.33912 24.09422,-0.13948l0.20864,0.54425c-5.7389,0.59347 -11.23336,0.59074 -16.9977,0.57433c-2.12216,-0.00821 -6.06648,0.13948 -8.10359,-0.05469c-2.11477,0.02462 -5.99867,0.19145 -7.93789,-0.0711z" id="Path-1-91" fill="#95a0a8"/><path d="M534.29593,510.34758c2.29606,0.06016 6.68772,-0.43484 8.2157,0.55791c-2.11477,0.02462 -5.99867,0.19145 -7.93789,-0.0711z" id="Path-1-92" fill="#83858b"/><path d="M892.55757,436.0488l0.75195,0.27623c0.59063,0.8697 -0.34181,11.83386 -0.41836,13.72642c-0.27343,8.08707 -0.4457,16.17414 -0.5168,24.26396c-0.59336,-0.08751 -0.39649,-0.03828 -0.94064,-0.30083c-0.23789,-2.33012 0.54961,-10.69343 0.62071,-13.803c0.175,-8.05698 0.39375,-16.08935 0.50312,-24.16276z" id="Path-1-93" fill="#83858b"/><path d="M678.99851,508.65196c-12.11082,0.35827 -24.32855,0.06016 -36.44923,0.4704c-1.15472,0.04103 -3.87789,0.41024 -4.69,-0.24067c1.33355,-0.56338 38.96977,-0.76029 43.76122,-0.97636l2.50524,0.27623c-0.74594,0.04922 -4.72063,0.19964 -5.12723,0.4704z" id="Path-1-94" fill="#83858b"/><path d="M724.03393,366.34162l0.36477,0.25708c0.65023,1.2802 0.31528,29.82454 0.28192,33.74172l-0.35054,-0.2579c-0.33688,-0.69576 -0.23817,-30.35867 -0.29613,-33.7409z" id="Path-1-95" fill="#95a0a8"/><path d="M725.48151,268.37429c-0.07902,-1.96939 -0.40716,-13.60362 0.27535,-14.70497l0.50505,-0.02133c0.5827,0.96159 0.24993,13.36623 -0.23598,14.90981l-0.14876,-0.26337z" id="Path-1-96" fill="#95a0a8"/><path d="M726.78417,222.93161c0.15723,3.00647 0.16487,7.92982 -0.02407,11.04458c-0.01749,0.28907 -0.24718,0.29128 -0.58352,0.43402l-0.31363,-0.34404c-0.41918,-2.84237 -0.07739,-9.94433 0.27453,-12.86027c0.17364,0.61917 0.2789,1.20881 0.64669,1.72571z" id="Path-1-97" fill="#95a0a8"/><path d="M726.1375,221.2059c0.20481,-3.03326 0.30598,-19.00695 1.01035,-20.69684c0.4334,6.18249 -0.41728,15.80001 -0.36367,22.42255c-0.36777,-0.5169 -0.47304,-1.10654 -0.64668,-1.72571z" id="Path-1-98" fill="#83858b"/><path d="M755.4314,333.00167c1.63516,-0.20621 8.82929,-0.37414 10.29765,0.08286l0.36913,0.76714c-1.61601,0.25626 -8.63516,0.33803 -10.20195,-0.05798z" id="Path-1-99" fill="#95a0a8"/><path d="M725.48151,268.37429l0.39566,-0.07986l0.14876,0.26337c-0.18319,6.01321 -0.31528,12.02805 -0.39622,18.04372c-0.39566,-0.54779 -0.44817,-1.79162 -0.53949,-2.52046z" id="Path-1-100" fill="#83858b"/><path d="M754.58374,505.69281c1.56134,-0.09025 4.89181,-0.45674 6.29181,0.17229c0.38829,0.17504 0.37734,0.68647 0.50859,1.23344c-1.81836,-0.01641 -4.67031,0.4157 -6.3082,-0.25708c-0.33634,-0.13675 -0.37187,-0.6974 -0.49218,-1.14865z" id="Path-1-101" fill="#95a0a8"/><path d="M567.40428,509.84162c2.36087,-0.01641 12.74684,-0.63449 13.98496,0.11488c-4.24676,0.27349 -9.50716,0.42118 -13.77634,0.42937z" id="Path-1-102" fill="#69696a"/></g><text x="3142.91936" y="668.45103" transform="scale(0.24145,0.24145)" id="PointText-1" fill="#000000" font-family="font-geometric" font-weight="normal" font-size="40" text-anchor="start">name: "BigCorp"

identifier: "b1gc0rp:</text><text x="3028.9595" y="1085.63922" transform="scale(0.24145,0.24145)" id="PointText-9574-1" fill="#000000" font-family="font-geometric" font-weight="normal" font-size="40" text-anchor="start">since: "2001-10-21"</text><text x="3012.67563" y="1776.45815" transform="scale(0.24145,0.24145)" id="PointText-10278-1" fill="#000000" font-family="font-geometric" font-weight="normal" font-size="40" text-anchor="start">since: "2001-10-21"</text><text x="3733.63852" y="1824.45815" transform="scale(0.24145,0.24145)" id="PointText-10694-1" fill="#000000" font-family="font-geometric" font-weight="normal" font-size="40" text-anchor="start">number: 1</text><text x="3247.66714" y="1458.56712" transform="scale(0.24145,0.24145)" id="PointText-14207-1" fill="#000000" font-family="font-geometric" font-weight="normal" font-size="40" text-anchor="start">stock: 11</text><text x="2254.85492" y="1444.63781" transform="scale(0.24145,0.24145)" id="PointText-19206-1" fill="#000000" font-family="font-geometric" font-weight="normal" font-size="40" text-anchor="start">name: "Big Shop"
URL: "https://bshop.com"
image:"https://example.com/big.png</text><text x="3824.25525" y="1085.63922" transform="scale(0.24145,0.24145)" id="PointText-19206-1-1" fill="#000000" font-family="font-geometric" font-weight="normal" font-size="40" text-anchor="start">name: "fridge"
description: "a fridge:
image:
["https://ex.com/
fridge.png",
"https://ex.com/
fridge2.png"]
availability: "InStock"
price: 999.9</text><text x="3840.80232" y="2251.32872" transform="scale(0.24145,0.24145)" id="PointText-19206-1-2" fill="#000000" font-family="font-geometric" font-weight="normal" font-size="40" text-anchor="start">number: 1
price: 999.9</text><text x="3045.65662" y="2328.57006" transform="scale(0.24145,0.24145)" id="PointText-19206-1-3" fill="#000000" font-family="font-geometric" font-weight="normal" font-size="40" text-anchor="start">accountName: "JustADude"
password: "dudelicious:</text><text x="2141.46668" y="2358.26262" transform="scale(0.24145,0.24145)" id="PointText-19206-1-4" fill="#000000" font-family="font-geometric" font-weight="normal" font-size="40" text-anchor="start">firstName: "John"
familyName: Doe"</text></g></g><text x="1953.10105" y="391.37824" transform="scale(0.38854,0.38854)" id="PointText-1-1" fill="#000000" font-family="font-geometric" font-weight="normal" font-size="40" text-anchor="start">:Owner</text><text x="699.19607" y="272.76348" id="PointText-1-2" fill="#000000" font-family="font-geometric" font-weight="normal" font-size="40" text-anchor="start"/><text x="1809.14385" y="640.27619" transform="scale(0.38854,0.38854)" id="PointText-4468-1" fill="#000000" font-family="font-geometric" font-weight="normal" font-size="40" text-anchor="start">OWNS</text><text x="1508.37705" y="1325.09067" transform="scale(0.38854,0.38854)" id="PointText-5411-1" fill="#000000" font-family="font-geometric" font-weight="normal" font-size="40" text-anchor="start">OWNS</text><text x="1980.55778" y="872.02437" transform="scale(0.38854,0.38854)" id="PointText-5411-1-1" fill="#000000" font-family="font-geometric" font-weight="normal" font-size="40" text-anchor="start">PROVIDES</text><text x="1754.2792" y="1067.3987" transform="scale(0.38854,0.38854)" id="PointText-7423-1" fill="#000000" font-family="font-geometric" font-weight="normal" font-size="40" text-anchor="start">PROVIDES</text><text x="1973.23318" y="1316.66938" transform="scale(0.38854,0.38854)" id="PointText-7423-1-1" fill="#000000" font-family="font-geometric" font-weight="normal" font-size="40" text-anchor="start">PROVIDES</text><text x="2198.92421" y="1099.39965" transform="scale(0.38854,0.38854)" id="PointText-8138-1" fill="#000000" font-family="font-geometric" font-weight="normal" font-size="40" text-anchor="start">CONTAINS</text><text x="2255.46418" y="744.90647" transform="scale(0.38854,0.38854)" id="PointText-16948-1" fill="#000000" font-family="font-geometric" font-weight="normal" font-size="40" text-anchor="start">:Item</text><text x="1634.41702" y="857.82681" transform="scale(0.38854,0.38854)" id="PointText-16948-1-1" fill="#000000" font-family="font-geometric" font-weight="normal" font-size="40" text-anchor="start">:Eshop</text><text x="2385.2477" y="1364.66938" transform="scale(0.38854,0.38854)" id="PointText-16948-1-2" fill="#000000" font-family="font-geometric" font-weight="normal" font-size="40" text-anchor="start">:Cart</text><text x="1892.65916" y="1412.66938" transform="scale(0.38854,0.38854)" id="PointText-16948-1-3" fill="#000000" font-family="font-geometric" font-weight="normal" font-size="40" text-anchor="start">:Account</text><text x="1330.76937" y="1431.1212" transform="scale(0.38854,0.38854)" id="PointText-16948-1-4" fill="#000000" font-family="font-geometric" font-weight="normal" font-size="40" text-anchor="start">:Shopper</text></g></g></g></g></svg>